<?xml version="1.0" encoding="utf-8"?>
<!-- Generator: Adobe Illustrator 16.0.0, SVG Export Plug-In . SVG Version: 6.00 Build 0)  -->
<!DOCTYPE svg PUBLIC "-//W3C//DTD SVG 1.1//EN" "http://www.w3.org/Graphics/SVG/1.1/DTD/svg11.dtd">
<svg version="1.1" id="Layer_1" xmlns="http://www.w3.org/2000/svg" xmlns:xlink="http://www.w3.org/1999/xlink" x="0px" y="0px"
	 width="21px" height="21px" viewBox="0 0 21 21" enable-background="new 0 0 21 21" xml:space="preserve">
<g>
	<ellipse fill="#F9F9F9" cx="19.7" cy="7.6" rx="1" ry="0.6"/>
	<ellipse fill="#F9F9F9" cx="1.2" cy="7.6" rx="1" ry="0.6"/>
	<g>
		<path fill="#F9F9F9" d="M19.9,15.9c0,0,0-5.3,0-6.1c-0.1-0.8-1-1.5-1.4-1.7c-0.8-2.5-1.8-3.9-2.2-4.3c-0.4-0.4-5.8-0.5-5.8-0.5
			S5,3.5,4.6,3.9C4.3,4.3,3.2,5.7,2.4,8.2C2.1,8.4,1.2,9.1,1.1,9.9C1,10.7,1,16,1,16c-0.1,0-0.1,0.3,9.4,0.5
			C20,16.3,20,15.9,19.9,15.9z M4.6,4.6c0.2-0.3,4.7-0.2,5.9-0.2s5.7-0.1,5.9,0.2c0.2,0.3,0.9,1.3,1.3,3c-0.3,0.1-5.7,0-7.2,0
			s-7,0.2-7.3,0.1C3.6,6.1,4.3,4.9,4.6,4.6z M3.5,11.3c-1.3-0.3-1.8-0.5-1.8-0.9C1.8,10,2.3,9.5,3.6,9.8C5,10,6.1,10.8,6,11.2
			C6,11.6,4.8,11.5,3.5,11.3z M14.4,14.4H6.5c-0.5,0-0.9-0.5-0.9-1.1c0-0.6,0.9-1.1,0.9-1.1s0.8-0.5,3.9-0.4c2.9,0,3.9,0.4,3.9,0.4
			s0.9,0.5,0.9,1.1C15.3,13.9,14.9,14.4,14.4,14.4z M17.1,11.2c-1.3,0.3-2.2,0.4-2.3,0c-0.1-0.4,1.6-1.4,2.9-1.6
			c1.3-0.3,1.4,0.4,1.5,0.8C19.3,10.7,18.4,10.9,17.1,11.2z"/>
	</g>
	<path fill="#F9F9F9" d="M3.8,16.5c0,0.6-1.1,0.5-1.4,0.5C2.1,17,1,16.7,1,16.2L3.8,16.5z"/>
	<path fill="#F9F9F9" d="M17.1,16.5c0,0.6,1.1,0.5,1.4,0.5s1.4-0.3,1.4-0.8L17.1,16.5z"/>
</g>
<g id="Image_xA0_3_1_" enable-background="new    ">
	<g id="Image_xA0_3">
		<g>
			<ellipse fill="#FFFFFF" cx="15.9" cy="15.9" rx="5.1" ry="5.1"/>
		</g>
	</g>
</g>
<g id="_x2B__1_">
	<g enable-background="new    ">
		<path d="M15.5,12.6h0.8v3h3v0.8h-3v3h-0.8v-3h-3v-0.8h3V12.6z"/>
	</g>
</g>
</svg>
